<svg id="clip" xmlns="http://www.w3.org/2000/svg" width="42" height="48" viewBox="0 0 42 48">
  <defs>
    <style>
      .cls-1 {
        fill: #fff;
      }
    </style>
  </defs>
  <path id="Path_5" data-name="Path 5" class="cls-1" d="M41,6.769a3.369,3.369,0,0,0-1-2.393,3.433,3.433,0,0,0-2.416-.991H30.75V0H27.333V3.385H13.667V0H10.25V3.385H3.417A3.433,3.433,0,0,0,1,4.376,3.369,3.369,0,0,0,0,6.769V40.615a3.369,3.369,0,0,0,1,2.393A3.433,3.433,0,0,0,3.417,44H10.25V40.615H3.417V6.769H10.25v3.385h3.417V6.769H27.333v3.385H30.75V6.769h6.833V16.923H41Z"/>
  <path id="Path_6" data-name="Path 6" class="cls-1" d="M28,22l4.461,8.559L42,31.93l-7,6.663L36.75,48,28,43.559,19.25,48,21,38.593,14,31.93l9.8-1.371Z"/>
</svg>
