<svg xmlns="http://www.w3.org/2000/svg" width="42" height="42" viewBox="0 0 42 42">
  <defs>
    <style>
      .cls-1 {
        fill: #fff;
      }
    </style>
  </defs>
  <path id="globe" class="cls-1" d="M42,21v-.01A20.9,20.9,0,0,0,35,5.355l-.021-.018a1.042,1.042,0,0,0-.177-.152l0,0a20.958,20.958,0,0,0-27.641.038L7.176,5.2a.841.841,0,0,0-.122.114v0a20.966,20.966,0,0,0-.059,31.317l.021.017a1.174,1.174,0,0,0,.185.17l0,0a20.959,20.959,0,0,0,27.634-.046l-.023.019A20.894,20.894,0,0,0,42,21.011V21ZM34.189,34.655a20.889,20.889,0,0,0-3.34-2.208l-.114-.056a33.653,33.653,0,0,0,1.78-10.365V22H39.97A18.942,18.942,0,0,1,34.194,34.65ZM22,32.022a18.947,18.947,0,0,1,6.278,1.417l-.126-.046c-1.55,3.535-3.732,5.964-6.152,6.5Zm0-2V22h8.518a32.539,32.539,0,0,1-1.708,9.761l.068-.229a20.363,20.363,0,0,0-6.83-1.508l-.047,0ZM22,20V11.975a20.841,20.841,0,0,0,7.012-1.559l-.138.051a31.826,31.826,0,0,1,1.645,9.493V20ZM22,9.973V2.107c2.42.534,4.6,2.952,6.152,6.5a18.764,18.764,0,0,1-6.1,1.367Zm4.994-7a18.97,18.97,0,0,1,5.7,3.066l-.04-.031a18.445,18.445,0,0,1-2.562,1.682l-.1.049a17.621,17.621,0,0,0-3.017-4.79l.016.019Zm-7-.861V9.973a18.9,18.9,0,0,1-6.278-1.417l.126.045C15.4,5.066,17.577,2.639,20,2.105ZM12,7.733A19.153,19.153,0,0,1,9.3,5.971L9.341,6a18.8,18.8,0,0,1,5.526-3L15,2.966a17.535,17.535,0,0,0-2.956,4.651L12,7.731Zm8,4.24v8.022H11.479a32.527,32.527,0,0,1,1.713-9.759l-.068.229a20.388,20.388,0,0,0,6.826,1.507ZM20,22v8.022a20.841,20.841,0,0,0-7.012,1.559l.138-.051a31.815,31.815,0,0,1-1.645-9.493V22ZM20,32.02v7.866c-2.42-.534-4.6-2.952-6.152-6.5a18.761,18.761,0,0,1,6.1-1.365l.051,0Zm-4.987,7a18.975,18.975,0,0,1-5.7-3.059l.042.032a18.444,18.444,0,0,1,2.562-1.682l.1-.049a17.224,17.224,0,0,0,3.015,4.783l-.016-.018ZM30,34.26a19.15,19.15,0,0,1,2.7,1.762l-.042-.032a18.8,18.8,0,0,1-5.526,3l-.133.04a17.524,17.524,0,0,0,2.956-4.649L30,34.264ZM39.97,20H32.514A34.408,34.408,0,0,0,30.663,9.36l.072.241a21.669,21.669,0,0,0,3.495-2.3l-.042.031a18.922,18.922,0,0,1,5.78,12.608l0,.049ZM7.808,7.339a20.884,20.884,0,0,0,3.34,2.208l.114.056a33.655,33.655,0,0,0-1.78,10.365V20H2.025A18.942,18.942,0,0,1,7.8,7.344l.005-.005ZM2.026,22H9.482a34.411,34.411,0,0,0,1.851,10.636l-.072-.242a21.663,21.663,0,0,0-3.494,2.3l.042-.032A18.922,18.922,0,0,1,2.03,22.049l0-.049Z"/>
</svg>
