<svg xmlns="http://www.w3.org/2000/svg" width="42" height="31.979" viewBox="0 0 42 31.979">
  <defs>
    <style>
      .cls-1 {
        fill: #fff;
      }
    </style>
  </defs>
  <path id="shirt" class="cls-1" d="M40.8,4.939,32.393.134l-.008,0L32.324.1,32.293.085c-.019-.009-.039-.015-.059-.023L32.2.048l-.05-.014L32.1.022l-.04-.007L32,.006l-.034,0L31.9,0H26.443a1.021,1.021,0,0,0-1.021,1.021,4.423,4.423,0,1,1-8.845,0A1.021,1.021,0,0,0,15.557,0H10.1c-.022,0-.045,0-.067,0L10,.006,9.942.016,9.9.022,9.853.035,9.8.049,9.766.062,9.707.085,9.676.1c-.02.01-.041.019-.06.03l-.008,0L1.2,4.939A2.383,2.383,0,0,0,.251,8.072l3.13,6.261a2.368,2.368,0,0,0,2.13,1.316H9.093V29.6a2.384,2.384,0,0,0,2.381,2.381H30.525A2.384,2.384,0,0,0,32.907,29.6V15.649h3.582a2.369,2.369,0,0,0,2.13-1.317l3.131-6.261A2.382,2.382,0,0,0,40.8,4.939ZM5.512,13.608a.338.338,0,0,1-.3-.188L2.077,7.159a.341.341,0,0,1,.136-.448L9.093,2.779V13.608ZM30.866,29.6a.341.341,0,0,1-.34.34H11.474a.341.341,0,0,1-.34-.34V2.041h3.482a6.464,6.464,0,0,0,12.767,0h3.482ZM39.923,7.159,36.793,13.42a.338.338,0,0,1-.3.188H32.907V2.779l6.881,3.932a.34.34,0,0,1,.136.448Z"/>
</svg>
