<svg id="watch" xmlns="http://www.w3.org/2000/svg" width="181.824" height="39" viewBox="0 0 181.824 39">
  <defs>
    <style>
      .cls-1 {
        fill: #fff;
      }
    </style>
  </defs>
  <path id="Path_1" data-name="Path 1" class="cls-1" d="M76.109,22.309,77.832,13.2H80.46L77.621,26H74.967l-2.083-8.56L70.8,26H68.146L65.308,13.2h2.628l1.731,9.088L71.776,13.2h2.232ZM88.73,23.363H84.107L83.229,26h-2.8l4.764-12.8h2.443L92.422,26h-2.8Zm-3.911-2.136h3.2l-1.608-4.79Zm17.376-5.889h-3.92V26H95.639V15.339H91.771V13.2h10.424Zm11.312,6.4a4.526,4.526,0,0,1-1.529,3.252,5.343,5.343,0,0,1-3.622,1.187,4.836,4.836,0,0,1-3.876-1.652,6.828,6.828,0,0,1-1.406-4.553v-.782a7.665,7.665,0,0,1,.651-3.252,4.849,4.849,0,0,1,1.854-2.153,5.8,5.8,0,0,1,6.381.431,4.865,4.865,0,0,1,1.564,3.331h-2.636a2.641,2.641,0,0,0-.695-1.793,2.523,2.523,0,0,0-1.8-.562,2.249,2.249,0,0,0-1.978.949,5.3,5.3,0,0,0-.668,2.927v.967a5.7,5.7,0,0,0,.624,3.032,2.21,2.21,0,0,0,1.986.958,2.6,2.6,0,0,0,1.82-.554,2.526,2.526,0,0,0,.694-1.731ZM125.653,26h-2.636V20.516h-5.142V26h-2.637V13.2h2.637v5.186h5.142V13.2h2.636Zm11.523-3.173,2.9-9.624h2.936L138.556,26H135.8l-4.439-12.8h2.927ZM147.028,26h-2.636V13.2h2.636Zm2.452,0V13.2h3.938a5.93,5.93,0,0,1,3.015.765,5.261,5.261,0,0,1,2.083,2.162,6.643,6.643,0,0,1,.747,3.182V19.9a6.646,6.646,0,0,1-.739,3.173,5.222,5.222,0,0,1-2.065,2.153,6.028,6.028,0,0,1-3.015.773Zm2.637-10.661v8.543h1.275a2.863,2.863,0,0,0,2.364-1.011,4.569,4.569,0,0,0,.835-2.892V19.3a4.621,4.621,0,0,0-.809-2.953,2.848,2.848,0,0,0-2.364-1.011Zm16.77,5.115h-5.063v3.428h5.942V26h-8.578V13.2h8.56v2.136h-5.924v3.05h5.063Zm12.937-.562a7.715,7.715,0,0,1-.668,3.313,5.019,5.019,0,0,1-1.916,2.2,5.263,5.263,0,0,1-2.847.774,5.323,5.323,0,0,1-2.839-.765,5.085,5.085,0,0,1-1.934-2.18,7.536,7.536,0,0,1-.694-3.269v-.633a7.686,7.686,0,0,1,.677-3.322,5.075,5.075,0,0,1,1.924-2.206,5.613,5.613,0,0,1,5.687,0,5,5,0,0,1,1.925,2.206,7.593,7.593,0,0,1,.685,3.313Zm-2.672-.58a5.389,5.389,0,0,0-.72-3.059,2.543,2.543,0,0,0-4.105-.009,5.307,5.307,0,0,0-.729,3.023v.624a5.457,5.457,0,0,0,.72,3.041,2.527,2.527,0,0,0,4.114.044,5.451,5.451,0,0,0,.72-3.041Z"/>
  <path id="Path_2" data-name="Path 2" class="cls-1" d="M19,0A18.756,18.756,0,0,1,32.435,5.711a19.865,19.865,0,0,1,0,27.577,18.657,18.657,0,0,1-26.87,0,19.865,19.865,0,0,1,0-27.577A18.756,18.756,0,0,1,19,0Zm0,36.214a16.077,16.077,0,0,0,11.516-4.9,17.027,17.027,0,0,0,0-23.638,15.992,15.992,0,0,0-23.031,0,17.027,17.027,0,0,0,0,23.638A16.077,16.077,0,0,0,19,36.214ZM16.964,25.436,25.642,19.5l-8.678-5.936Zm.451-14.915L28,17.762a2.072,2.072,0,0,1,.666.753,2.138,2.138,0,0,1,0,1.972,2.072,2.072,0,0,1-.666.753l-10.58,7.24a1.991,1.991,0,0,1-2.09.1,2.059,2.059,0,0,1-.786-.768,2.13,2.13,0,0,1-.289-1.073V12.257a2.13,2.13,0,0,1,.289-1.073,2.059,2.059,0,0,1,.786-.768,1.991,1.991,0,0,1,2.09.1Z"/>
  <rect id="Rectangle_7" data-name="Rectangle 7" class="cls-1" width="2" height="31" transform="translate(52 4)"/>
</svg>
